<?xml version="1.0" encoding="UTF-8"?>
<svg id="Layer_1" data-name="Layer 1" xmlns="http://www.w3.org/2000/svg" viewBox="0 0 384 384">
  <path d="M56.25,384h-9c-1.3-.25-2.55-.5-3.75-.75-40.15-2.67-57.06-58.2-27.78-84.99l169.17-159.06c.98-2.12-2.34-9.68-3.02-12.69-11.22-49.8,14.08-100.16,61.9-118.64,12.33-4.76,30.65-8.43,43.85-7.11,8.26.83,13.04,6.64,8.51,14.46l-50.01,50.43,16.79,54.09,2.18,1.57,53.14,16.31,49.66-49.29c15.62-8.22,15.97,8.05,15.4,19.11-3.36,65.63-64.2,108.67-127.85,93.85-2.84-.66-8.62-3.63-10.91-2.58l-161.63,173.32-11.88,7.6-14.76,4.36Z"/>

</svg>