<?xml version="1.0" encoding="UTF-8"?>
<svg id="Layer_1" data-name="Layer 1" xmlns="http://www.w3.org/2000/svg" viewBox="0 0 1500 1000">
  <path d="M258.29,403.7c-44.03-54.56-94.88-105.26-138.8-159.69-4.84-6-9.93-11.82-12.96-19.04-15.06-35.76,7.94-75.55,46.1-80.86,28.32-3.94,62.6-2.98,91.87-5.13,136.36-10.04,299.51-28.38,427.76-75.24,36.39-13.29,64.05-36.28,104.27-21.77,17.94,6.47,35.69,16.08,54.23,22.77,127.52,46.06,289.34,64.27,424.76,74.24,29.19,2.15,62.6,1.31,90.98,5.02,44.89,5.88,66.97,56.33,39.93,92.9l-145.04,166.96c-315.06,102.33-668.92,108.21-983.09-.17ZM750.01,404c8.34-10.59,19.85-18.26,33.5-19.99,35.68-4.51,79.48,1.58,92.51-42.49,16.9-57.16-42.13-93.12-32.78-139.78,2.11-10.55,8.61-21.16,12.55-31.08l-21.39-25.59c-25.93,17.14-57.93,17.92-83.72.09-24.88,18.16-57.91,16.81-83.08-.09l-21.47,24.64c3.29,10.71,10.64,20.84,12.42,32.24,5.23,33.44-13.13,48.22-24.73,75.38-11.45,26.81-17.57,58.59,2.2,83.15,28.73,35.7,89.41,9.03,112.44,39.56.86,1.14,1.45,2.53,1.55,3.96Z"/>
  <path d="M1254.99,621c-13.93,38.58-34.69,75.87-57.77,109.72-81.89,120.09-201.72,202.37-346.89,225.11-123.3,19.32-242.01,1.92-350.01-60.66-107.37-62.22-186.75-161.89-237.33-274.16,54.65,22.2,111.45,39.25,168.99,52.5,272.11,62.69,561.38,43.53,823.01-52.51Z"/>
  <path d="M263,431c85,31.31,173.05,55.18,262.67,69.83,243.92,39.89,498.08,15.05,728.3-73.4l2.03,1.07v158c-.76,1.02-1.59,1.71-2.76,2.24-9.8,4.36-25.7,8.22-36.47,11.53-294.27,90.5-623.06,91.31-917.76,2.23-12.03-3.64-24.57-7.11-36-12v-159.5Z"/>
</svg>